<svg id="Capa_1" data-name="Capa 1" xmlns="http://www.w3.org/2000/svg" xmlns:xlink="http://www.w3.org/1999/xlink" viewBox="0 0 43.96 43.96"><defs><style>.cls-1{fill:url(#linear-gradient);}.cls-2{fill-rule:evenodd;fill:url(#linear-gradient-2);}</style><linearGradient id="linear-gradient" y1="21.98" x2="43.96" y2="21.98" gradientUnits="userSpaceOnUse"><stop offset="0" stop-color="#fff"/><stop offset="0.49" stop-color="#fcfcfc"/><stop offset="0.72" stop-color="#f7f7f7"/><stop offset="0.77" stop-color="#ececec"/><stop offset="0.87" stop-color="#d0d0d0"/><stop offset="1" stop-color="#a3a3a3"/></linearGradient><linearGradient id="linear-gradient-2" x1="10.61" y1="21.98" x2="33.34" y2="21.98" xlink:href="#linear-gradient"/></defs><title>0</title><path class="cls-1" d="M36.15,7.81A20,20,0,1,0,42,22,20,20,0,0,0,36.15,7.81M22,0A22,22,0,1,1,6.44,6.44,21.9,21.9,0,0,1,22,0Z"/><path class="cls-2" d="M22,11.93,26.39,16V13.86h2.79v4.81l4.16,3.93H30.62V32H25V28.55a2.95,2.95,0,1,0-5.89,0V32H13.33V22.6H10.61Z"/></svg>