<svg id="Capa_1" data-name="Capa 1" xmlns="http://www.w3.org/2000/svg" viewBox="0 0 43.96 43.96"><defs><style>.cls-1,.cls-2{fill:#fff;}.cls-2{fill-rule:evenodd;}</style></defs><title>0</title><path class="cls-1" d="M36.15,7.81A20,20,0,1,0,42,22,20,20,0,0,0,36.15,7.81M22,0A22,22,0,1,1,6.44,6.44,21.9,21.9,0,0,1,22,0Z"/><path class="cls-2" d="M19.68,13.71a6,6,0,1,1-6,6,6,6,0,0,1,6-6M26,24.27l4.8,4.8a.38.38,0,0,1-.53.55L25.5,24.87A7,7,0,0,0,26,24.27Zm-6.3-12.34a7.78,7.78,0,0,1,6.64,11.84l5.17,5a1.9,1.9,0,0,1-2.66,2.7l-5.22-5.07a7.68,7.68,0,0,1-3.93,1.06,7.78,7.78,0,1,1,0-15.55Z"/><path class="cls-2" d="M23.32,18.33c-.59-1.63-1.6-2.41-3.62-2.63-.53,0-.73-.32-.67-.6s.23-.45.7-.46A4.94,4.94,0,0,1,24.44,18c.26.9-.45,1.07-.9.72a.89.89,0,0,1-.22-.42"/></svg>