<svg id="Capa_1" data-name="Capa 1" xmlns="http://www.w3.org/2000/svg" viewBox="0 0 43.96 43.96"><defs><style>.cls-1,.cls-2{fill:#fff;}.cls-2{fill-rule:evenodd;}</style></defs><title>0</title><path class="cls-1" d="M36.15,7.81A20,20,0,1,0,42,22,20,20,0,0,0,36.15,7.81M22,0A22,22,0,1,1,6.44,6.44,21.9,21.9,0,0,1,22,0Z"/><path class="cls-2" d="M14.38,20h15.2a.43.43,0,0,1,.43.43v8.45a.44.44,0,0,1-.43.44H14.38a.44.44,0,0,1-.44-.44V20.47a.44.44,0,0,1,.44-.43M13.32,15.3h2v1a1.74,1.74,0,1,0,3.48,0v-1h6.31v1a1.75,1.75,0,0,0,3.49,0v-1h2a1.07,1.07,0,0,1,1.07,1.06V30A1.07,1.07,0,0,1,30.64,31H13.32A1.07,1.07,0,0,1,12.25,30V16.36A1.07,1.07,0,0,1,13.32,15.3Z"/><path class="cls-2" d="M16,21.5H18.4a.11.11,0,0,1,.11.11V24a.11.11,0,0,1-.11.11H16a.11.11,0,0,1-.12-.11V21.61A.11.11,0,0,1,16,21.5"/><path class="cls-2" d="M20.74,21.5h2.41a.11.11,0,0,1,.11.11V24a.11.11,0,0,1-.11.11H20.74a.11.11,0,0,1-.11-.11V21.61a.11.11,0,0,1,.11-.11"/><path class="cls-2" d="M25.56,21.5H28a.11.11,0,0,1,.11.11V24a.11.11,0,0,1-.11.11H25.56a.11.11,0,0,1-.11-.11V21.61a.11.11,0,0,1,.11-.11"/><path class="cls-2" d="M16,25.24H18.4a.11.11,0,0,1,.11.11v2.41a.11.11,0,0,1-.11.11H16a.11.11,0,0,1-.12-.11V25.35a.11.11,0,0,1,.12-.11"/><path class="cls-2" d="M20.74,25.24h2.41a.11.11,0,0,1,.11.11v2.41a.11.11,0,0,1-.11.11H20.74a.11.11,0,0,1-.11-.11V25.35a.11.11,0,0,1,.11-.11"/><path class="cls-2" d="M25.56,25.24H28a.11.11,0,0,1,.11.11v2.41a.11.11,0,0,1-.11.11H25.56a.11.11,0,0,1-.11-.11V25.35a.11.11,0,0,1,.11-.11"/><path class="cls-2" d="M17.08,12.91h0a1.25,1.25,0,0,1,1.24,1.24v2.19a1.24,1.24,0,0,1-1.24,1.23h0a1.24,1.24,0,0,1-1.24-1.23V14.15a1.25,1.25,0,0,1,1.24-1.24"/><path class="cls-2" d="M26.88,12.91h0a1.24,1.24,0,0,1,1.23,1.24v2.19a1.23,1.23,0,0,1-1.23,1.23h0a1.23,1.23,0,0,1-1.24-1.23V14.15a1.24,1.24,0,0,1,1.24-1.24"/></svg>