<svg id="Capa_1" data-name="Capa 1" xmlns="http://www.w3.org/2000/svg" viewBox="0 0 43.96 43.96"><defs><style>.cls-1{fill:#259ed2;}.cls-1,.cls-2,.cls-4{fill-rule:evenodd;}.cls-2{fill:#59b5dd;}.cls-3,.cls-4{fill:#fff;}</style></defs><title>0</title><path class="cls-1" d="M11.53,15.83c-.15.12-.85.78.27,2.42a.3.3,0,0,0,.25.16.54.54,0,0,0,.26-.09,8.72,8.72,0,0,0,1.38,2.54,2.17,2.17,0,0,1-.06.9c-.24.55-2,1-2.48,1.18A3.74,3.74,0,0,0,8,26.19l-.38,2.9H24.56l-.38-2.9A3.74,3.74,0,0,0,21,22.94c-.48-.15-2.24-.63-2.48-1.18a2.17,2.17,0,0,1-.06-.9,9,9,0,0,0,1.39-2.54.51.51,0,0,0,.25.09.3.3,0,0,0,.25-.16c1.12-1.64.42-2.3.27-2.42a.14.14,0,0,0-.1,0c-.12,0-.21.13-.21.13h0a4.17,4.17,0,0,0-4.24-4.67,4.17,4.17,0,0,0-4.24,4.67h0s-.09-.14-.2-.13a.17.17,0,0,0-.11,0"/><path class="cls-2" d="M23.61,15.83c-.16.12-.85.78.27,2.42a.28.28,0,0,0,.25.16.51.51,0,0,0,.25-.09,8.78,8.78,0,0,0,1.39,2.54,2.36,2.36,0,0,1-.06.9c-.25.55-2,1-2.49,1.18a3.74,3.74,0,0,0-3.15,3.25l-.38,2.9h17l-.38-2.9a3.74,3.74,0,0,0-3.15-3.25c-.48-.15-2.24-.63-2.48-1.18a2,2,0,0,1-.06-.9A8.72,8.72,0,0,0,32,18.32a.54.54,0,0,0,.25.09.28.28,0,0,0,.25-.16c1.12-1.64.43-2.3.28-2.42a.19.19,0,0,0-.11,0c-.11,0-.21.13-.21.13h0a4.26,4.26,0,1,0-8.49,0h0s-.09-.14-.21-.13a.14.14,0,0,0-.1,0"/><path class="cls-3" d="M36.15,7.81A20,20,0,1,0,42,22,20,20,0,0,0,36.15,7.81M22,0A22,22,0,1,1,6.44,6.44,21.9,21.9,0,0,1,22,0Z"/><path class="cls-4" d="M16.84,17.07c-.17.14-1,.89.3,2.74a.32.32,0,0,0,.29.17.48.48,0,0,0,.28-.1,10.05,10.05,0,0,0,1.56,2.87,2.6,2.6,0,0,1-.06,1c-.28.61-2.26,1.16-2.81,1.33s-3.27.68-3.55,3.65L12.43,32h19.1l-.43-3.28c-.27-3-3-3.48-3.55-3.65s-2.53-.72-2.8-1.33a2.57,2.57,0,0,1-.07-1,9.81,9.81,0,0,0,1.56-2.87.5.5,0,0,0,.29.1.3.3,0,0,0,.28-.17c1.27-1.85.48-2.6.31-2.74A.19.19,0,0,0,27,17c-.13,0-.23.15-.23.15h0a4.81,4.81,0,1,0-9.57,0h0S17.08,17,17,17a.19.19,0,0,0-.12,0"/></svg>