<svg id="Capa_1" data-name="Capa 1" xmlns="http://www.w3.org/2000/svg" viewBox="0 0 43.96 43.96"><defs><style>.cls-1{fill:#fff;}</style></defs><title>0</title><path class="cls-1" d="M36.15,7.81A20,20,0,1,0,42,22,20,20,0,0,0,36.15,7.81M22,0A22,22,0,1,1,6.44,6.44,21.9,21.9,0,0,1,22,0Z"/><path class="cls-1" d="M6.58,22.21a.9.9,0,0,0,0,.18,0,0,0,0,0,0,0s0,.1,0,.15l0,.05.06.1,0,.05.08.09h0l5.5,5a.85.85,0,0,0,.6.23.91.91,0,0,0,.66-.29.89.89,0,0,0-.06-1.25L9.76,23.1H23.49a.89.89,0,0,0,.89-.89h0a.89.89,0,0,0-.89-.89H9.76l3.81-3.48a.91.91,0,0,0,.06-1.26.9.9,0,0,0-1.26,0l-5.5,5h0l-.08.08a.1.1,0,0,1,0,.05l-.06.11,0,.05s0,.09,0,.14,0,0,0,0A1.1,1.1,0,0,0,6.58,22.21Z"/><path class="cls-1" d="M32.4,8.86H18.08a.89.89,0,0,0-.89.89v6.4a.89.89,0,1,0,1.78,0V10.64H31.51V33.79H19V28.27a.89.89,0,0,0-1.78,0v6.41a.89.89,0,0,0,.89.89H32.4a.89.89,0,0,0,.89-.89V9.75A.89.89,0,0,0,32.4,8.86Z"/></svg>