<svg id="Capa_1" data-name="Capa 1" xmlns="http://www.w3.org/2000/svg" viewBox="0 0 43.96 43.96"><defs><style>.cls-1,.cls-2{fill:#009bff;}.cls-2{fill-rule:evenodd;}.cls-3{fill:#51bbff;}</style></defs><title>0</title><path class="cls-1" d="M36.15,7.81A20,20,0,1,0,42,22,20,20,0,0,0,36.15,7.81M22,0A22,22,0,1,1,6.44,6.44,21.9,21.9,0,0,1,22,0Z"/><path class="cls-2" d="M16.84,17.07c-.17.14-1,.89.3,2.74a.32.32,0,0,0,.29.17.48.48,0,0,0,.28-.1,10.05,10.05,0,0,0,1.56,2.87,2.6,2.6,0,0,1-.06,1c-.28.61-2.26,1.16-2.81,1.33s-3.27.68-3.55,3.65L12.43,32h19.1l-.43-3.28c-.27-3-3-3.48-3.55-3.65s-2.53-.72-2.8-1.33a2.57,2.57,0,0,1-.07-1,9.81,9.81,0,0,0,1.56-2.87.5.5,0,0,0,.29.1.3.3,0,0,0,.28-.17c1.27-1.85.48-2.6.31-2.74A.19.19,0,0,0,27,17c-.13,0-.23.15-.23.15h0a4.81,4.81,0,1,0-9.57,0h0S17.08,17,17,17a.19.19,0,0,0-.12,0"/><rect class="cls-3" x="31.67" y="16.85" width="1.64" height="7.08"/><rect class="cls-3" x="31.67" y="16.85" width="1.64" height="7.08" transform="translate(12.11 52.88) rotate(-90)"/></svg>