<svg id="Capa_1" data-name="Capa 1" xmlns="http://www.w3.org/2000/svg" xmlns:xlink="http://www.w3.org/1999/xlink" viewBox="0 0 264.67 84.67"><defs><style>.cls-1{fill:none;}.cls-2{clip-path:url(#clip-path);}.cls-3{clip-path:url(#clip-path-2);}.cls-4{fill-rule:evenodd;fill:url(#linear-gradient);}.cls-5{font-size:48px;fill:#999;font-family:Haettenschweiler, Haettenschweiler;letter-spacing:0.06em;}</style><clipPath id="clip-path"><rect class="cls-1" x="-2052.33" y="-587" width="1920" height="1080"/></clipPath><clipPath id="clip-path-2"><rect class="cls-1" x="412.92" y="-587" width="1920" height="1080"/></clipPath><linearGradient id="linear-gradient" x1="83.62" y1="78.21" x2="40.53" y2="3.57" gradientUnits="userSpaceOnUse"><stop offset="0" stop-color="#82e900"/><stop offset="0.99" stop-color="#1584f2"/></linearGradient><image id="image" width="9000" height="3337" xlink:href="../../../../../Downloads/shutterstock_767724232.jpg"/></defs><title>logo</title><g class="cls-2"><use transform="translate(-2939.26 -598.17) scale(0.33 0.33)" xlink:href="#image"/></g><g class="cls-3"><use transform="translate(-474.01 -598.17) scale(0.33 0.33)" xlink:href="#image"/></g><path class="cls-4" d="M47.13.5H72.94a4.82,4.82,0,0,1,4.81,4.81V18.8h7.38v2.81H72.21l-7.68-7.34H58.14a3.3,3.3,0,0,0-3.2-1.88h0a3.3,3.3,0,0,0-3.07,3.5h0A3.31,3.31,0,0,0,55.38,19h0a3.31,3.31,0,0,0,2.76-1.88h5.2L71,24.42H97.58a4.81,4.81,0,0,1,4,4.74V30h6.3v2.81H77.56A3.28,3.28,0,0,0,74.81,31h0A3.29,3.29,0,0,0,71.3,34h0a3.31,3.31,0,0,0,3.06,3.51h0a3.31,3.31,0,0,0,3.2-1.88h24v5.58h8.53V44H92.25a3.32,3.32,0,0,0-2.76-1.89h0A3.3,3.3,0,0,0,86,45.22h0a3.29,3.29,0,0,0,3.06,3.51h0a3.31,3.31,0,0,0,3.2-1.89h9.35V54.1H71.86L68.56,51a3.38,3.38,0,0,0,.16-.84h0a3.3,3.3,0,0,0-3.06-3.51h0a3.31,3.31,0,0,0-3.51,3.07h0a3.31,3.31,0,0,0,3.07,3.51h0A3.33,3.33,0,0,0,66.56,53l4.11,3.92h34v2.87H77.75v19a4.82,4.82,0,0,1-4.81,4.81H47.13a4.83,4.83,0,0,1-4.82-4.81V65.33H33.89v-2.8H46.81l7.68,7.33h6.39a3.32,3.32,0,0,0,3.2,1.89h0a3.31,3.31,0,0,0,3.07-3.51h0a3.31,3.31,0,0,0-3.51-3.07h0a3.32,3.32,0,0,0-2.76,1.89h-5.2L48,59.72H22.48a4.83,4.83,0,0,1-4-4.75V46.84H34.82A3.32,3.32,0,0,0,38,48.73h0a3.31,3.31,0,0,0,3.07-3.51h0a3.31,3.31,0,0,0-3.51-3.07h0A3.32,3.32,0,0,0,34.82,44h-23V41.23h6.66V30H43.81l3.3,3.16a3.22,3.22,0,0,0-.17.83h0A3.31,3.31,0,0,0,50,37.53h0a3.31,3.31,0,0,0,3.51-3.07h0A3.31,3.31,0,0,0,50.45,31h0a3.22,3.22,0,0,0-1.35.2L45,27.22H14.68V24.35H42.31v-19A4.83,4.83,0,0,1,47.13.5Zm63.43,56.41h-4v2.88h4V56.91ZM12.15,24.35h-4v2.87h4V24.35ZM1.58,41.23H9.27V44H1.58V41.23ZM118.12,30h-7.7v2.81h7.7Z"/><text class="cls-5" transform="translate(124.83 60.6)">TEC.MED</text></svg>